{"glyphs":{":":{"x_min":0,"x_max":219,"ha":219,"o":"m 109 352 q 129 352 144 338 q 158 324 158 304 q 158 284 144 270 q 129 256 109 256 q 89 256 75 270 q 62 284 62 304 q 62 324 76 338 q 90 352 109 352 z m 109 90 q 129 90 143 76 q 158 62 158 42 q 158 22 144 8 q 129 -6 109 -6 q 90 -6 76 8 q 62 22 62 42 q 62 62 76 76 q 90 90 109 90 z"},"$":{"x_min":0,"x_max":500,"ha":500,"o":"m 230 592 l 258 592 l 258 533 q 339 528 381 494 q 424 460 424 425 q 424 407 413 392 q 403 377 384 377 q 371 377 360 387 q 349 396 349 414 q 349 427 360 443 q 370 457 370 463 q 370 480 339 495 q 308 510 258 514 l 258 308 q 366 279 407 241 q 447 204 447 144 q 447 73 400 29 q 352 -15 258 -22 l 258 -143 l 230 -143 l 230 -22 q 152 -22 99 19 q 45 61 45 120 q 45 139 58 154 q 71 169 87 169 q 105 169 117 156 q 129 143 129 125 q 129 99 102 83 q 93 78 93 70 q 93 48 132 24 q 171 0 230 -4 l 230 235 q 115 270 88 308 q 62 346 62 388 q 62 455 111 492 q 161 529 230 533 z m 230 514 q 170 508 136 484 q 101 460 101 418 q 101 382 132 359 q 162 335 230 317 z m 258 -4 q 323 -2 360 30 q 397 63 397 106 q 397 141 371 170 q 345 200 258 228 z"},"?":{"x_min":0,"x_max":427,"ha":427,"o":"m 92 366 q 146 320 181 320 q 224 320 259 369 q 294 418 294 488 q 294 555 259 596 q 223 636 179 636 q 134 636 134 605 q 134 600 135 593 q 136 584 136 580 q 136 560 124 548 q 112 535 95 535 q 52 535 52 580 q 52 615 89 634 q 125 653 175 653 q 252 653 310 597 q 367 541 367 466 q 367 391 320 341 q 272 292 207 292 q 165 292 121 320 q 112 214 112 174 q 112 163 110 160 q 108 158 100 158 q 89 158 89 171 l 88 194 q 88 314 92 366 z m 108 87 q 128 87 142 73 q 157 60 157 39 q 157 19 143 5 q 128 -9 108 -9 q 88 -9 74 5 q 60 19 60 39 q 60 60 74 73 q 89 87 108 87 z"},"<":{"x_min":0,"x_max":667,"ha":667,"o":"m 595 20 l 72 242 l 72 280 l 595 501 l 595 455 l 128 261 l 595 67 z"},"'":{"x_min":0,"x_max":177,"ha":177,"o":"m 77 392 l 51 537 q 40 597 40 614 q 40 677 87 677 q 109 677 124 663 q 138 648 138 624 q 138 606 125 536 l 99 392 z"},"=":{"x_min":0,"x_max":667,"ha":667,"o":"m 72 397 l 595 397 l 595 354 l 72 354 z m 72 171 l 595 171 l 595 127 l 72 127 z"},"a":{"x_min":0,"x_max":438,"ha":438,"o":"m 284 62 q 260 28 227 10 q 194 -7 152 -7 q 103 -7 74 20 q 46 46 46 89 q 46 121 63 149 q 80 177 102 189 q 124 201 178 220 q 256 246 272 263 q 288 280 288 307 q 288 351 267 375 q 247 399 209 399 q 178 399 163 385 q 147 371 139 330 q 130 285 100 285 q 89 285 76 296 q 63 307 63 328 q 63 364 104 391 q 145 418 215 418 q 271 418 305 403 q 338 387 347 366 q 355 346 355 287 l 353 158 q 353 83 362 52 q 371 21 395 21 q 400 21 409 22 l 417 23 q 428 23 428 15 q 428 -4 332 -4 q 304 -4 295 9 q 285 21 284 62 z m 284 253 q 270 234 218 207 q 167 180 144 156 q 122 132 122 98 q 122 67 140 45 q 158 24 186 24 q 214 24 239 41 q 264 59 276 85 q 288 112 288 165 q 288 205 284 253 z"},"L":{"x_min":0,"x_max":615,"ha":615,"o":"m 574 -2 q 550 -3 546 -3 q 528 -3 481 -2 q 434 0 284 0 l 160 0 q 153 0 110 -2 q 67 -4 58 -4 q 21 -4 21 5 q 21 13 36 14 q 83 17 102 34 q 120 51 127 84 q 134 116 134 259 l 134 434 q 134 519 127 553 q 119 586 95 604 q 72 622 42 625 q 26 626 26 635 q 26 644 41 644 q 44 644 53 643 q 131 639 235 639 l 321 640 q 334 640 334 630 q 334 622 320 622 q 285 622 262 608 q 239 594 231 576 q 224 559 224 507 l 220 276 l 221 147 q 221 87 226 69 q 231 51 247 36 q 263 22 306 22 q 309 22 393 25 q 460 34 513 90 q 566 146 584 191 q 589 204 597 204 q 605 204 605 192 q 605 178 591 94 q 577 10 574 -2 z"},"3":{"x_min":0,"x_max":500,"ha":500,"o":"m 296 295 q 361 295 398 261 q 435 227 435 177 q 435 109 368 50 q 301 -10 208 -10 q 135 -10 93 23 q 51 56 51 91 q 51 111 65 126 q 78 142 100 142 q 115 142 125 131 q 134 121 134 108 q 134 101 128 89 q 122 77 122 66 q 122 41 146 25 q 170 9 205 9 q 251 9 283 36 q 315 63 337 119 q 358 175 358 203 q 358 239 338 260 q 318 280 290 280 q 270 280 231 250 q 201 227 197 227 q 188 227 188 236 q 188 240 234 274 q 316 337 332 369 q 348 401 348 429 q 348 464 327 487 q 305 510 271 510 q 225 510 188 473 q 152 435 152 388 q 152 363 162 350 q 171 338 191 338 q 220 338 244 383 q 248 389 252 389 q 262 389 262 380 q 262 369 234 337 q 206 305 169 305 q 136 305 118 326 q 100 346 100 375 q 100 433 156 481 q 212 530 293 530 q 356 530 388 502 q 419 474 419 434 q 419 405 404 382 q 388 360 367 345 z"},";":{"x_min":0,"x_max":219,"ha":219,"o":"m 110 352 q 129 352 144 338 q 158 324 158 304 q 158 284 144 270 q 129 256 110 256 q 90 256 76 270 q 62 284 62 304 q 62 324 76 338 q 90 352 110 352 z m 102 90 q 127 90 148 68 q 170 45 170 16 q 170 -25 144 -69 q 118 -113 86 -134 q 55 -156 47 -156 q 39 -156 39 -146 q 39 -142 49 -136 q 72 -123 95 -91 q 117 -59 117 -26 q 117 -8 99 -6 q 69 -4 58 11 q 47 25 47 40 q 47 59 61 75 q 75 90 102 90 z"},"J":{"x_min":0,"x_max":385,"ha":385,"o":"m 121 639 l 128 638 q 180 634 264 634 q 301 634 329 635 q 345 636 353 636 q 368 636 368 627 q 368 617 355 617 q 317 617 301 601 q 284 585 281 518 q 277 450 277 369 l 277 191 q 277 83 219 36 q 161 -11 104 -11 q 61 -11 31 11 q 1 32 1 69 q 1 91 14 104 q 26 117 45 117 q 63 117 75 106 q 86 94 86 80 q 86 71 80 60 q 72 45 72 38 q 72 26 82 18 q 92 10 107 10 q 142 10 164 34 q 187 58 190 108 q 194 159 194 326 q 194 529 189 570 q 183 611 123 617 q 109 619 109 627 q 109 639 121 639 z"},"V":{"x_min":0,"x_max":677,"ha":677,"o":"m 355 -11 l 327 -11 q 304 63 254 190 l 162 428 q 119 539 102 566 q 85 593 69 603 q 53 613 24 615 q 12 616 12 624 q 12 633 24 633 l 280 633 q 304 633 304 625 q 304 614 288 614 q 224 614 224 559 q 224 546 229 517 q 235 488 250 446 q 264 404 312 274 q 359 144 373 114 l 477 404 q 522 527 522 559 q 522 610 458 615 q 446 616 446 625 q 446 630 450 632 q 455 633 478 633 l 641 633 q 663 633 667 632 q 672 631 672 625 q 672 616 653 613 q 616 608 598 587 q 580 565 563 536 q 546 506 473 301 q 447 229 355 -11 z"},"\"":{"x_min":0,"x_max":406,"ha":406,"o":"m 103 392 l 76 537 q 65 596 65 618 q 65 677 113 677 q 133 677 148 663 q 163 649 163 623 q 163 604 150 536 l 124 392 z m 281 392 l 255 535 q 243 597 243 618 q 243 677 293 677 q 316 677 329 662 q 342 646 342 624 q 342 583 333 535 l 305 392 z"},"7":{"x_min":0,"x_max":500,"ha":500,"o":"m 443 519 l 439 505 q 391 420 358 337 q 324 253 316 210 q 309 167 303 54 q 299 -24 257 -24 q 239 -24 228 -9 q 218 5 218 26 q 218 79 292 242 l 383 438 q 387 446 387 449 q 387 456 378 456 l 314 456 q 199 456 169 455 q 139 455 119 436 q 100 417 92 401 q 84 387 77 387 q 67 387 67 397 q 67 406 83 471 q 98 535 104 545 q 109 555 115 555 q 122 555 126 544 q 132 532 143 526 q 155 521 196 521 l 307 522 q 365 522 443 519 z"},"S":{"x_min":0,"x_max":521,"ha":521,"o":"m 388 604 q 401 618 406 632 q 410 644 417 644 q 421 644 426 639 q 429 621 436 568 l 447 476 q 447 467 437 467 q 431 467 426 477 q 400 541 350 583 q 299 625 239 625 q 180 625 150 590 q 120 554 120 514 q 120 465 152 439 q 185 414 287 381 q 362 357 400 335 q 437 313 462 274 q 488 234 488 189 q 488 112 424 51 q 360 -10 267 -10 q 184 -10 99 42 q 83 28 78 10 q 74 -6 65 -6 q 57 -6 54 14 q 50 34 40 204 q 42 209 50 209 q 57 209 62 199 q 137 10 271 10 q 338 10 376 50 q 414 90 414 143 q 414 179 394 209 q 374 239 340 258 q 307 276 234 299 q 142 329 108 356 q 75 382 59 416 q 43 449 43 480 q 43 545 102 596 q 161 646 247 646 q 279 646 314 636 q 350 625 388 604 z"},"}":{"x_min":0,"x_max":479,"ha":479,"o":"m 86 633 l 86 650 q 165 641 217 586 q 270 530 270 460 q 270 427 260 384 q 248 333 248 310 q 248 272 278 242 q 308 211 359 205 l 359 185 q 308 179 278 148 q 248 117 248 80 q 248 57 260 5 q 270 -38 270 -71 q 270 -140 217 -196 q 164 -251 86 -260 l 86 -243 q 197 -216 197 -127 q 197 -102 185 -50 q 174 -6 174 25 q 174 80 213 125 q 252 170 319 194 q 252 218 213 265 q 174 312 174 364 q 174 396 185 440 q 197 492 197 517 q 197 605 86 633 z"},"Z":{"x_min":0,"x_max":635,"ha":635,"o":"m 553 2 l 532 0 q 87 0 74 0 q 56 0 52 1 q 49 2 49 7 q 50 13 73 52 q 96 90 166 193 l 292 381 q 351 466 372 496 q 436 582 448 614 q 362 618 313 618 q 240 618 205 607 q 170 596 146 575 q 123 553 88 503 q 72 479 66 479 q 59 479 59 488 q 59 490 80 559 q 101 628 105 638 q 110 647 114 647 l 187 643 q 226 641 346 641 q 512 641 557 646 q 562 647 564 647 q 570 647 570 641 q 570 626 390 369 q 227 135 166 24 q 236 21 286 21 q 354 21 394 28 q 433 35 465 50 q 496 65 511 79 q 527 92 561 134 q 591 171 597 171 q 604 171 604 160 z"},"x":{"x_min":0,"x_max":531,"ha":531,"o":"m 229 200 l 105 366 q 86 394 38 398 q 22 400 22 409 q 22 415 28 416 q 35 418 61 418 l 216 418 q 242 418 242 409 q 242 399 207 395 q 189 393 189 383 q 189 372 276 250 q 350 351 350 372 q 350 394 316 398 q 302 400 302 408 q 302 418 334 418 l 441 418 q 463 418 463 409 q 463 399 448 399 q 408 399 392 379 q 375 360 288 234 l 380 108 q 423 49 445 36 q 466 22 492 20 q 507 19 507 11 q 507 4 501 2 q 495 0 469 0 l 312 0 q 283 0 283 10 q 283 19 298 20 q 336 23 336 42 q 336 50 326 63 q 322 69 306 95 q 283 130 242 184 q 159 61 159 43 q 159 20 204 19 q 221 18 221 9 q 221 0 192 0 l 61 0 q 34 0 34 10 q 34 18 49 19 q 69 21 97 32 q 125 44 155 90 z"},")":{"x_min":0,"x_max":302,"ha":302,"o":"m 254 198 q 254 133 232 40 q 211 -53 149 -159 q 86 -266 65 -266 q 41 -266 41 -256 q 41 -253 45 -249 q 99 -187 152 -54 q 206 78 206 212 q 206 349 155 471 q 103 593 56 642 q 46 652 46 656 q 46 666 76 666 q 98 666 148 582 q 198 498 226 402 q 254 307 254 198 z"},"&":{"x_min":0,"x_max":688,"ha":688,"o":"m 473 159 q 517 74 541 55 q 565 36 589 36 q 621 36 651 62 q 654 65 657 65 q 667 65 667 56 q 667 46 622 19 q 578 -9 534 -9 q 507 -9 485 7 q 462 22 419 97 q 310 -9 209 -9 q 141 -9 93 33 q 46 75 46 138 q 46 198 84 247 q 123 296 215 354 q 126 442 126 508 q 126 563 166 598 q 206 633 257 633 q 302 633 338 604 q 374 575 374 528 q 374 465 287 391 q 401 296 461 180 q 524 278 524 332 q 524 356 509 371 q 494 386 466 386 q 442 386 442 395 q 442 405 453 405 l 539 402 l 654 403 q 667 403 667 394 q 667 385 650 385 q 615 384 590 359 q 565 334 531 260 q 498 189 473 159 z m 270 407 q 333 462 333 521 q 333 556 308 583 q 284 609 251 609 q 220 609 202 587 q 183 564 183 535 q 183 477 270 407 z m 231 338 q 181 306 153 269 q 124 232 124 180 q 124 119 163 78 q 202 37 254 37 q 329 37 409 117 q 369 189 338 228 q 308 267 231 338 z"},"_":{"x_min":0,"x_max":500,"ha":500,"o":"m -6 -75 l 506 -75 l 506 -125 l -6 -125 z"},"v":{"x_min":0,"x_max":500,"ha":500,"o":"m 277 86 q 382 318 382 370 q 382 392 355 394 q 339 395 339 403 q 339 413 351 413 l 424 412 l 468 412 q 484 412 484 402 q 484 395 473 394 q 433 390 415 360 q 396 331 366 252 q 314 119 291 70 q 268 22 264 9 q 258 -7 250 -7 q 244 -7 235 13 l 177 139 l 116 274 q 85 344 72 364 q 59 383 53 387 q 46 392 29 395 q 18 396 18 404 q 18 414 32 414 l 117 413 q 177 413 184 413 q 201 413 201 404 q 201 396 184 394 q 159 389 159 368 q 159 330 277 86 z"},"O":{"x_min":0,"x_max":729,"ha":729,"o":"m 43 324 q 43 390 83 469 q 124 547 200 599 q 277 650 374 650 q 509 650 597 553 q 686 457 686 333 q 686 201 588 96 q 490 -9 353 -9 q 222 -9 133 83 q 43 175 43 324 z m 152 339 q 152 260 177 176 q 201 92 253 54 q 306 17 365 17 q 461 17 519 110 q 577 204 577 327 q 577 446 518 536 q 459 626 364 626 q 292 626 244 578 q 196 530 174 463 q 152 396 152 339 z"},"(":{"x_min":0,"x_max":302,"ha":302,"o":"m 48 203 q 48 282 74 377 q 101 472 147 549 q 193 626 212 646 q 230 666 237 666 q 261 666 261 657 q 261 654 257 649 q 204 587 150 455 q 96 322 96 188 q 96 60 146 -64 q 195 -188 247 -242 q 256 -252 256 -256 q 256 -266 227 -266 q 205 -266 155 -182 q 104 -98 76 -2 q 48 94 48 203 z"},"C":{"x_min":0,"x_max":646,"ha":646,"o":"m 543 599 q 570 623 574 631 q 579 643 588 643 q 598 643 599 625 l 610 455 q 610 440 609 437 q 608 434 602 434 q 594 434 585 455 q 553 532 496 582 q 438 631 370 631 q 310 631 260 593 q 210 555 183 484 q 155 413 155 331 q 155 192 232 106 q 308 19 402 19 q 466 19 520 60 q 574 100 601 153 q 608 168 616 168 q 627 168 627 156 q 627 142 590 94 q 553 46 492 17 q 432 -13 363 -13 q 281 -13 208 28 q 134 70 91 143 q 48 216 48 315 q 48 412 90 489 q 132 567 208 610 q 283 653 364 653 q 407 653 452 639 q 497 626 543 599 z"},"W":{"x_min":0,"x_max":1031,"ha":1031,"o":"m 368 -12 l 353 -12 q 330 39 299 113 q 268 188 194 355 q 120 521 98 554 q 75 586 56 599 q 37 611 22 612 q 7 614 7 622 q 7 631 44 631 l 257 631 q 287 631 287 622 q 287 613 272 612 q 209 609 209 563 q 209 553 215 535 q 220 518 285 362 q 349 206 387 125 q 402 162 451 307 q 500 452 510 489 q 475 583 459 595 q 442 607 414 611 q 394 613 394 621 q 394 631 430 631 l 639 631 q 658 631 663 629 q 668 627 668 621 q 668 614 643 609 q 590 601 590 558 q 590 489 744 130 q 775 209 804 292 l 857 441 q 880 506 883 523 q 886 539 886 553 q 886 611 825 612 q 811 613 811 622 q 811 627 815 629 q 820 631 840 631 l 959 631 q 1012 631 1020 630 q 1027 629 1027 621 q 1027 614 1016 613 q 962 609 932 554 q 902 500 795 193 q 739 32 720 -12 l 707 -12 q 667 95 630 184 q 593 273 525 446 z"},"A":{"x_min":0,"x_max":688,"ha":688,"o":"m 321 652 l 344 652 q 398 540 495 270 q 557 96 580 57 q 603 18 653 13 q 669 12 669 2 q 669 -4 661 -4 l 654 -4 q 609 0 540 0 q 434 0 403 -3 q 388 -3 388 5 q 388 12 399 13 q 441 17 457 27 q 473 38 473 60 q 473 81 443 165 l 414 249 q 389 249 187 246 q 136 110 136 75 q 136 45 161 31 q 187 17 211 15 q 229 14 229 4 q 229 0 223 -3 q 145 0 129 0 q 47 0 19 -2 q 3 -2 3 7 q 3 15 17 17 q 73 24 103 93 q 132 162 195 340 q 253 503 321 652 z m 302 545 q 256 453 196 276 q 246 278 268 278 l 405 276 q 387 327 354 411 q 314 511 302 545 z"},"f":{"x_min":0,"x_max":281,"ha":281,"o":"m 163 369 q 161 350 161 247 q 161 114 162 83 q 163 53 178 34 q 194 15 230 10 q 244 9 244 0 q 244 -6 233 -6 l 151 -1 q 71 -1 44 -5 l 39 -5 q 28 -5 28 2 q 28 11 45 13 q 67 16 77 23 q 86 31 89 44 q 92 58 95 138 q 98 219 98 298 q 98 330 98 369 q 61 371 42 372 q 23 372 23 382 q 23 400 32 405 q 41 411 98 412 q 98 498 111 548 q 124 599 167 633 q 211 666 276 666 q 337 666 364 645 q 391 623 391 591 q 391 557 359 557 q 347 557 339 565 q 332 574 316 604 q 293 648 253 648 q 195 648 178 591 q 161 533 161 471 q 161 443 163 412 q 178 413 188 413 q 226 413 244 409 q 262 406 262 397 q 262 389 256 380 q 250 371 232 369 q 213 368 192 368 q 181 368 163 369 z"},"Q":{"x_min":0,"x_max":729,"ha":729,"o":"m 418 -2 q 370 -9 343 -9 q 271 -9 201 31 q 130 70 87 144 q 44 218 44 310 q 44 445 140 547 q 235 649 374 649 q 463 649 533 606 q 604 562 645 487 q 686 411 686 332 q 686 268 657 200 q 628 132 581 85 q 534 38 473 3 q 413 -31 330 -62 q 268 -86 243 -99 q 263 -97 274 -97 q 310 -97 337 -108 q 364 -120 426 -158 q 505 -207 546 -207 q 577 -207 598 -193 q 619 -180 648 -144 q 656 -134 662 -134 q 671 -134 671 -144 q 671 -162 619 -214 q 566 -266 489 -266 q 450 -266 406 -247 q 362 -229 278 -167 q 230 -133 201 -133 q 171 -133 158 -151 q 146 -169 142 -209 q 139 -236 131 -248 q 123 -259 104 -259 q 91 -259 80 -249 q 69 -239 69 -224 q 69 -200 95 -167 q 122 -133 165 -109 q 208 -85 304 -49 q 393 -15 418 -2 z m 154 334 q 154 254 177 177 q 201 99 250 58 q 299 16 364 16 q 459 16 518 105 q 576 194 576 323 q 576 445 518 535 q 460 625 362 625 q 267 625 210 535 q 154 446 154 334 z"},"w":{"x_min":0,"x_max":719,"ha":719,"o":"m 268 96 q 352 292 352 326 q 352 342 343 359 q 334 376 325 382 q 317 387 300 388 q 288 389 288 397 q 288 408 301 408 l 387 410 q 450 410 458 408 q 465 407 465 400 q 465 394 449 389 q 420 378 420 360 q 420 355 429 328 q 438 302 465 238 l 524 103 q 557 186 584 268 q 611 350 611 362 q 611 388 580 391 q 562 393 562 402 q 562 409 577 410 q 593 411 643 411 q 675 411 685 410 q 694 408 694 402 q 694 396 674 387 q 650 376 638 358 q 625 341 610 286 q 597 241 554 126 l 507 1 q 503 -9 497 -9 q 490 -9 481 15 q 475 31 439 115 q 391 227 368 289 l 365 286 q 351 244 323 175 l 272 51 q 250 -5 246 -8 q 243 -11 240 -11 q 234 -11 226 10 q 186 113 152 192 l 96 321 q 75 371 65 378 q 55 386 42 387 q 25 389 25 396 q 25 407 47 407 l 158 409 l 204 408 q 218 408 218 401 q 218 391 199 388 q 164 382 164 364 q 164 338 268 96 z"},"-":{"x_min":0,"x_max":344,"ha":344,"o":"m 42 237 l 312 237 q 324 237 325 235 q 327 232 327 217 l 327 190 q 327 176 325 174 q 322 172 305 172 l 42 172 q 22 172 19 174 q 17 177 17 190 l 17 217 q 17 232 19 235 q 22 237 42 237 z"},"E":{"x_min":0,"x_max":656,"ha":656,"o":"m 558 633 q 572 579 585 480 q 583 476 580 476 q 577 476 573 480 q 539 534 508 562 q 478 591 447 603 q 416 615 340 615 q 269 615 227 606 q 223 602 223 588 q 223 585 222 576 q 217 537 217 364 q 217 357 218 344 q 255 342 269 342 q 331 342 358 361 q 386 379 406 439 q 410 450 416 450 q 425 450 425 436 l 423 416 q 419 377 419 336 q 419 270 422 217 q 422 200 413 200 q 406 200 403 212 q 393 270 360 295 q 328 320 218 320 q 217 285 217 205 q 217 102 224 74 q 231 46 259 30 q 287 14 354 14 q 543 14 599 145 q 605 161 613 161 q 621 161 621 150 q 621 144 618 137 q 615 128 604 68 q 602 55 585 -8 l 381 -8 q 337 -8 252 -4 q 167 0 101 0 q 35 0 32 2 q 29 5 29 8 q 29 18 45 18 q 100 18 117 46 q 134 75 134 187 l 133 287 l 135 380 q 135 409 132 488 q 128 566 126 578 q 123 589 111 600 q 98 611 56 622 q 43 625 43 633 q 43 642 60 642 l 160 636 q 212 634 419 634 q 555 634 558 633 z"},"s":{"x_min":0,"x_max":396,"ha":396,"o":"m 348 129 q 348 73 306 32 q 264 -9 206 -9 q 172 -9 125 13 q 99 25 94 25 q 85 25 79 15 q 71 1 64 1 q 59 1 57 15 q 56 29 55 78 q 55 121 54 133 q 54 151 63 151 q 68 151 71 142 q 90 86 125 47 q 159 8 206 8 q 238 8 264 29 q 289 49 289 83 q 289 137 196 179 q 132 208 110 221 q 89 234 77 256 q 64 279 64 305 q 64 355 103 389 q 141 423 195 423 q 235 423 283 398 q 291 395 296 395 q 301 395 307 402 q 313 410 316 410 q 321 410 323 406 q 326 402 329 363 q 332 324 332 298 q 332 283 323 283 q 316 283 312 297 q 308 310 288 347 q 269 384 245 395 q 222 405 200 405 q 165 405 142 388 q 120 371 120 343 q 120 326 129 312 q 138 299 146 292 q 154 285 239 247 q 292 223 309 210 q 325 197 336 175 q 348 153 348 129 z"},">":{"x_min":0,"x_max":667,"ha":667,"o":"m 72 501 l 595 279 l 595 241 l 72 20 l 72 66 l 538 260 l 72 455 z"},"l":{"x_min":0,"x_max":281,"ha":281,"o":"m 175 669 q 176 607 177 546 l 176 242 l 178 94 q 178 52 190 34 q 202 15 242 12 q 257 10 257 2 q 257 -6 245 -6 q 241 -6 236 -5 q 186 0 116 0 q 74 0 48 -4 q 42 -4 38 -4 q 23 -4 23 4 q 23 13 37 13 q 81 14 95 39 q 109 64 109 123 l 107 401 q 107 536 104 562 q 101 588 83 605 q 66 623 36 628 q 17 631 17 638 q 17 646 32 647 q 122 653 167 669 z"},"8":{"x_min":0,"x_max":500,"ha":500,"o":"m 319 297 q 379 271 409 234 q 438 198 438 151 q 438 87 380 39 q 321 -9 249 -9 q 179 -9 125 31 q 71 70 71 124 q 71 162 98 192 q 125 223 196 264 q 91 308 91 389 q 91 449 141 497 q 190 545 265 545 q 326 545 374 512 q 422 479 422 426 q 422 390 397 359 q 373 328 319 297 z m 297 306 q 345 331 362 358 q 378 385 378 421 q 378 471 344 499 q 310 527 263 527 q 213 527 178 500 q 143 472 143 426 q 143 384 174 360 q 206 336 297 306 z m 218 255 q 120 196 120 121 q 120 77 154 43 q 188 10 249 10 q 308 10 343 43 q 377 77 377 123 q 377 155 359 183 q 340 210 298 225 q 255 240 218 255 z"},"\\":{"x_min":0,"x_max":500,"ha":500,"o":"m 55 696 l 98 696 l 445 -18 l 402 -18 z"},"e":{"x_min":0,"x_max":427,"ha":427,"o":"m 116 228 q 114 203 114 188 q 114 119 155 71 q 195 23 255 23 q 314 23 364 70 q 379 83 383 83 q 391 83 391 71 q 373 37 328 13 q 283 -10 228 -10 q 146 -10 90 48 q 34 106 34 196 q 34 292 96 355 q 158 419 228 419 q 294 419 347 369 q 400 319 400 252 q 400 242 397 237 q 394 232 360 232 z m 116 253 q 179 250 239 250 l 265 252 q 294 253 310 263 q 325 274 325 300 q 325 341 297 372 q 269 402 231 402 q 196 402 161 367 q 126 333 116 253 z"},"b":{"x_min":0,"x_max":500,"ha":500,"o":"m 156 364 q 210 419 281 419 q 360 419 414 358 q 469 298 469 216 q 469 128 415 60 q 360 -9 271 -9 q 195 -9 144 29 q 127 42 121 42 q 109 42 102 21 q 96 1 89 1 q 81 1 81 15 l 82 35 l 88 462 q 88 577 87 596 q 86 615 77 625 q 69 635 45 643 q 34 646 34 652 q 34 660 47 659 l 133 660 q 146 657 153 655 q 161 653 161 642 q 161 637 160 620 q 156 558 156 364 z m 150 151 q 150 100 158 76 q 167 52 195 32 q 222 12 262 12 q 314 12 351 62 q 388 112 388 199 q 388 290 354 342 q 320 394 261 394 q 208 394 179 352 q 150 310 150 151 z"},"%":{"x_min":0,"x_max":740,"ha":740,"o":"m 186 652 q 241 652 285 606 q 330 560 330 488 q 330 413 285 367 q 241 322 186 322 q 130 322 85 367 q 41 412 41 484 q 41 558 84 605 q 128 652 186 652 z m 191 634 q 152 634 127 596 q 102 558 102 478 q 102 413 125 377 q 148 342 184 342 q 220 342 245 380 q 271 418 271 496 q 271 568 245 601 q 219 634 191 634 z m 557 649 l 588 649 l 189 -12 l 159 -12 z m 556 316 q 610 316 655 270 q 699 225 699 152 q 699 74 654 30 q 609 -14 555 -14 q 498 -14 454 32 q 410 79 410 148 q 410 219 453 267 q 496 316 556 316 z m 561 299 q 518 299 494 258 q 471 216 471 142 q 471 77 494 42 q 518 6 553 6 q 592 6 616 47 q 640 88 640 160 q 640 229 615 264 q 590 299 561 299 z"},"m":{"x_min":0,"x_max":781,"ha":781,"o":"m 167 419 q 173 401 173 385 q 172 362 171 339 q 208 379 245 399 q 282 419 320 419 q 354 419 384 403 q 414 386 438 353 q 473 387 509 403 q 544 420 580 420 q 627 420 658 400 q 690 381 698 357 q 706 333 706 271 l 703 87 q 703 47 711 33 q 719 19 744 19 q 761 19 761 10 q 761 0 734 0 l 584 0 q 562 0 562 9 q 562 17 575 18 q 615 20 625 36 q 634 53 634 212 q 634 287 629 320 q 623 353 602 374 q 581 395 550 395 q 523 395 498 379 q 473 362 449 329 q 429 265 429 104 q 429 47 438 32 q 447 18 478 18 l 486 18 q 502 18 502 9 q 502 0 482 0 l 318 0 q 293 0 293 10 q 293 19 307 19 q 337 19 347 31 q 358 44 362 103 q 365 162 365 220 q 365 324 345 356 q 325 389 286 389 q 253 389 220 363 q 188 336 177 292 q 166 247 166 133 q 166 53 173 35 q 181 18 212 18 q 224 18 227 16 q 229 15 229 8 q 229 0 210 0 l 59 0 q 32 0 32 10 q 32 18 42 19 q 68 20 78 29 q 87 38 92 82 q 96 126 96 226 q 96 325 95 346 q 94 367 81 380 q 67 393 36 393 q 23 394 23 402 q 23 407 26 409 q 30 412 71 416 q 111 420 143 420 q 150 420 167 419 z"},"#":{"x_min":0,"x_max":667,"ha":667,"o":"m 46 463 l 209 463 l 252 667 l 295 667 l 252 463 l 474 463 l 517 667 l 560 667 l 517 463 l 621 463 l 621 420 l 508 420 l 467 222 l 621 222 l 621 179 l 458 179 l 417 -23 l 373 -23 l 416 179 l 192 179 l 151 -23 l 107 -23 l 149 179 l 46 179 l 46 222 l 159 222 l 200 420 l 46 420 z m 243 420 l 201 223 l 424 223 l 466 420 z"},",":{"x_min":0,"x_max":219,"ha":219,"o":"m 102 90 q 127 90 148 68 q 170 45 170 16 q 170 -25 144 -69 q 118 -113 86 -134 q 55 -156 47 -156 q 39 -156 39 -146 q 39 -142 49 -136 q 72 -123 95 -91 q 117 -59 117 -26 q 117 -8 99 -6 q 69 -4 58 11 q 47 25 47 40 q 47 59 61 75 q 75 90 102 90 z"},"n":{"x_min":0,"x_max":531,"ha":531,"o":"m 156 418 q 167 389 170 321 q 200 369 237 393 q 274 417 317 417 q 351 417 382 404 q 413 392 429 361 q 446 331 446 257 l 443 93 q 443 47 451 36 q 458 24 483 18 q 500 13 500 7 q 500 0 492 0 q 489 0 485 0 q 463 5 419 5 q 379 5 334 1 q 316 1 316 10 q 316 16 326 18 q 353 23 361 30 q 369 36 373 47 q 376 57 378 117 q 380 177 380 215 q 380 318 354 352 q 329 386 290 386 q 233 386 195 324 q 157 263 157 119 q 157 53 166 35 q 174 18 208 14 q 219 13 219 4 q 219 -2 208 -2 l 183 0 q 169 0 93 0 l 54 0 q 32 0 32 7 q 32 16 56 20 q 78 24 86 35 q 94 46 96 108 q 99 170 99 263 q 99 350 87 371 q 76 392 55 396 q 36 401 36 409 q 36 417 50 417 l 90 417 q 96 417 156 418 z"},"h":{"x_min":0,"x_max":521,"ha":521,"o":"m 162 347 q 221 419 302 419 q 367 419 401 383 q 436 346 436 252 l 433 123 q 433 61 434 48 q 436 35 448 25 q 460 15 473 15 q 486 15 486 9 q 486 0 464 0 l 320 0 q 312 2 312 8 q 312 15 323 17 q 357 21 364 44 q 370 66 370 188 q 370 319 344 357 q 318 395 275 395 q 233 395 201 363 q 169 331 163 269 q 157 207 157 117 q 157 57 164 38 q 170 20 200 14 q 212 12 212 5 q 212 -3 200 -3 l 102 -1 q 70 -1 46 -2 q 32 -2 32 5 q 32 12 43 14 q 67 17 75 27 q 83 37 89 106 q 95 174 95 281 q 95 472 94 531 q 92 591 76 617 q 61 644 38 648 q 24 651 24 658 q 24 662 28 663 q 31 664 59 664 q 107 664 162 667 l 161 424 q 161 377 162 347 z"},"z":{"x_min":0,"x_max":448,"ha":448,"o":"m 80 411 q 102 414 231 414 l 294 415 l 356 413 q 375 413 375 404 q 375 397 327 322 l 204 128 q 155 55 141 22 q 159 21 178 21 l 210 21 l 246 21 q 277 21 293 27 q 309 33 322 46 q 335 59 383 121 q 390 129 395 129 q 403 129 403 121 q 403 118 375 3 l 245 2 l 131 4 l 69 2 q 49 2 49 12 q 49 28 155 183 q 203 252 214 274 q 226 295 283 394 q 245 395 231 395 q 170 395 138 379 q 106 363 77 316 q 63 293 57 293 q 49 293 49 302 q 49 305 53 316 q 61 339 80 411 z"},"B":{"x_min":0,"x_max":615,"ha":615,"o":"m 392 345 q 482 321 528 278 q 573 235 573 174 q 573 108 517 52 q 460 -4 352 -4 q 331 -4 286 -1 q 257 0 255 0 q 104 0 52 -3 q 34 -3 34 6 q 34 11 39 13 q 44 15 77 21 q 97 24 108 38 q 119 51 125 91 q 131 132 131 212 q 131 291 133 340 q 135 388 135 414 q 135 495 129 543 q 123 592 111 606 q 100 619 65 625 q 51 626 51 635 q 51 644 65 644 l 154 642 q 198 642 236 644 q 321 648 346 648 q 437 648 490 609 q 542 569 542 501 q 542 447 508 409 q 473 370 392 345 z m 224 614 q 220 507 220 440 l 220 368 q 220 354 224 350 q 229 346 247 346 q 340 346 396 380 q 452 414 452 494 q 452 562 410 595 q 369 628 307 628 q 271 628 224 614 z m 224 323 q 217 311 217 280 l 214 129 q 214 49 218 40 q 222 30 246 24 q 271 18 323 18 q 369 18 398 31 q 427 43 452 82 q 476 120 476 173 q 476 252 429 289 q 383 326 292 326 q 261 326 224 323 z"},"K":{"x_min":0,"x_max":677,"ha":677,"o":"m 215 325 q 262 356 290 385 q 317 414 375 477 q 434 540 445 560 q 457 581 457 590 q 457 602 444 611 q 431 620 413 623 q 394 625 394 634 q 394 643 410 643 q 413 643 420 643 q 438 644 529 644 q 591 644 615 643 q 640 642 640 634 q 640 625 626 624 q 581 617 547 599 q 514 581 443 513 q 373 445 322 382 q 379 382 417 366 q 456 350 482 311 q 507 272 526 180 q 558 24 641 17 q 660 16 660 7 q 660 0 651 0 l 606 0 q 506 0 492 -1 q 468 30 461 61 q 454 92 441 169 q 431 236 406 293 q 381 351 329 351 q 294 351 257 328 q 220 305 214 294 q 208 283 208 165 q 208 82 214 62 q 219 43 236 32 q 253 21 283 18 q 300 16 300 7 q 300 -1 288 -1 l 282 -1 q 269 0 183 0 q 79 0 65 -2 q 59 -3 55 -3 q 44 -3 44 6 q 44 14 58 16 q 83 19 96 30 q 109 41 113 55 q 117 70 123 152 q 129 234 129 289 q 129 361 127 411 q 126 461 122 521 q 117 580 112 592 q 106 604 97 611 q 87 617 51 622 q 39 623 39 630 q 39 641 61 641 l 101 642 l 274 644 q 287 644 287 635 q 287 630 283 628 q 278 626 256 623 q 233 620 227 617 q 221 615 215 605 q 209 595 209 572 q 209 517 215 325 z"},"R":{"x_min":0,"x_max":677,"ha":677,"o":"m 406 327 q 473 298 500 266 q 526 234 539 167 q 555 79 584 49 q 614 19 661 17 q 674 16 674 7 q 674 -1 659 -1 q 522 -1 493 8 q 464 17 450 107 q 437 196 423 237 q 408 277 377 299 q 345 321 278 321 q 253 321 221 315 q 218 285 218 251 q 218 126 222 89 q 225 52 242 35 q 260 19 300 18 q 318 17 318 9 q 318 0 296 0 l 55 0 q 34 0 34 9 q 34 18 50 18 q 87 18 102 29 q 116 40 125 64 q 133 87 133 149 l 132 249 l 132 401 q 132 517 127 555 q 122 592 109 605 q 96 618 48 625 q 38 627 38 634 q 38 642 58 642 l 347 648 q 467 648 521 602 q 575 556 575 490 q 575 448 553 413 q 531 378 501 363 q 472 347 406 327 z m 221 340 q 314 342 361 353 q 408 364 441 402 q 474 440 474 493 q 474 548 438 589 q 401 630 320 630 q 276 630 223 618 q 217 484 217 404 q 217 377 221 340 z"},"T":{"x_min":0,"x_max":719,"ha":719,"o":"m 306 612 q 268 614 252 614 q 147 614 100 570 q 52 526 44 492 q 42 480 31 480 q 26 480 22 484 q 24 542 41 641 q 64 642 71 642 q 109 642 173 638 q 242 634 384 634 q 529 634 573 637 q 613 641 683 641 q 689 606 691 568 q 694 524 697 507 q 697 503 697 499 q 697 487 687 487 q 681 487 677 491 q 672 495 658 519 q 632 558 605 578 q 578 599 544 604 q 510 610 408 612 q 402 539 402 444 q 402 130 415 74 q 429 18 511 18 q 531 18 531 10 q 531 0 512 0 l 212 0 q 200 0 200 9 q 200 19 223 19 q 262 19 285 40 q 309 62 313 99 q 316 136 316 313 q 316 465 306 612 z"},"P":{"x_min":0,"x_max":615,"ha":615,"o":"m 217 309 q 217 287 214 243 q 213 222 213 200 q 213 183 215 128 q 216 73 221 60 q 227 46 244 33 q 261 21 281 20 q 304 18 304 9 q 304 2 297 1 q 290 0 245 0 l 111 0 q 54 0 51 2 q 47 4 47 9 q 47 17 65 21 q 98 28 111 43 q 124 59 127 111 q 130 162 130 229 l 128 360 l 130 500 q 130 575 120 596 q 109 617 80 622 q 47 628 47 636 q 47 645 62 645 l 159 644 l 314 645 q 467 645 520 597 q 573 549 573 478 q 573 392 504 349 q 435 306 295 306 q 262 306 217 309 z m 217 329 q 289 326 299 326 q 349 326 393 343 q 437 360 457 405 q 477 449 477 493 q 477 548 440 586 q 402 625 305 625 q 255 625 217 614 q 217 596 217 592 l 219 479 l 217 360 q 217 351 217 329 z"},"|":{"x_min":0,"x_max":500,"ha":500,"o":"m 229 666 l 272 666 l 272 -266 l 229 -266 z"},"t":{"x_min":0,"x_max":344,"ha":344,"o":"m 187 375 q 180 267 180 163 q 180 83 199 58 q 218 34 254 34 q 280 34 311 53 q 322 60 325 60 q 331 60 331 53 q 331 41 296 16 q 262 -10 211 -10 q 162 -10 137 25 q 112 60 112 128 q 112 200 121 375 q 117 375 74 378 l 45 380 q 34 380 34 387 q 34 394 46 397 q 66 405 114 440 q 161 476 169 541 q 171 558 180 558 q 188 558 188 544 q 188 540 188 535 q 187 516 187 491 l 187 415 l 294 417 q 321 417 322 410 q 322 388 315 382 q 290 382 187 375 z"},"M":{"x_min":0,"x_max":927,"ha":927,"o":"m 233 639 q 283 532 325 450 q 376 352 405 287 q 434 222 472 159 q 573 326 706 639 l 900 639 q 911 637 911 630 q 911 623 899 622 q 847 617 830 601 q 812 584 808 546 q 804 507 800 402 q 796 297 796 228 q 796 93 798 71 q 800 49 815 36 q 830 22 872 17 q 884 15 884 7 q 884 0 869 0 l 679 0 l 629 0 q 613 0 613 8 q 613 15 624 17 q 665 22 678 32 q 692 42 698 67 q 705 92 705 192 l 714 426 l 719 542 q 719 555 715 555 q 709 555 706 547 l 609 356 q 516 173 495 122 l 465 48 q 451 15 448 11 q 445 8 441 8 q 435 8 431 21 q 422 51 341 213 q 298 305 239 422 q 180 539 175 544 q 170 549 167 549 q 163 549 163 537 l 157 241 l 156 144 q 156 66 177 42 q 198 18 238 18 q 263 18 263 7 q 263 0 251 0 l 241 0 l 209 0 l 140 0 q 95 0 24 -5 q 19 -1 19 3 q 19 13 36 13 q 84 15 107 45 q 130 76 130 183 l 129 269 l 136 487 q 136 563 114 591 q 91 619 48 625 q 29 627 29 635 q 29 644 43 644 q 50 644 61 643 z"},"g":{"x_min":0,"x_max":542,"ha":542,"o":"m 388 350 q 410 315 410 273 q 410 210 369 166 q 327 121 249 115 q 198 111 180 107 q 162 102 146 88 q 131 74 131 61 q 131 40 155 30 q 178 21 252 18 q 361 14 397 9 q 434 3 460 -26 q 486 -54 486 -99 q 486 -173 421 -220 q 355 -266 228 -266 q 133 -266 85 -242 q 38 -217 38 -169 q 38 -93 182 -45 q 121 -35 96 -18 q 71 -1 71 29 q 71 60 97 84 q 124 107 176 124 q 129 137 100 172 q 72 206 72 252 q 72 319 123 369 q 173 419 251 419 q 328 419 375 367 q 426 424 470 424 q 500 424 517 407 q 534 389 534 368 q 534 355 524 346 q 515 337 501 337 q 476 337 461 367 q 453 384 440 384 q 420 384 388 350 z m 149 268 q 149 196 181 165 q 212 135 248 135 q 280 135 306 166 q 333 197 333 262 q 333 328 307 365 q 281 401 243 401 q 202 401 176 366 q 149 331 149 268 z m 279 -46 q 229 -46 185 -63 q 142 -80 121 -103 q 100 -126 100 -158 q 100 -201 142 -224 q 183 -247 246 -247 q 340 -247 386 -208 q 432 -170 432 -125 q 432 -85 394 -66 q 356 -46 279 -46 z"},"j":{"x_min":0,"x_max":271,"ha":271,"o":"m 136 681 q 151 681 165 669 q 178 657 178 639 q 178 622 165 610 q 151 599 136 599 q 120 599 107 610 q 95 622 95 640 q 95 656 105 668 q 116 681 136 681 z m 183 419 q 180 210 180 175 q 180 -29 175 -96 q 170 -164 125 -212 q 81 -260 18 -260 q -19 -260 -46 -240 q -74 -220 -74 -183 q -74 -161 -61 -148 q -48 -135 -34 -135 q -19 -135 -8 -145 q 2 -155 2 -172 q 2 -180 -4 -197 q -8 -208 -8 -215 q -8 -228 1 -235 q 10 -241 27 -241 q 56 -241 80 -221 q 103 -200 108 -170 q 114 -141 114 3 l 115 304 q 115 364 108 380 q 100 396 69 396 q 63 396 58 396 q 37 396 37 405 q 37 415 65 415 q 128 416 183 419 z"},"i":{"x_min":0,"x_max":260,"ha":260,"o":"m 117 658 q 135 658 150 645 q 165 631 165 615 q 165 596 153 582 q 141 568 120 568 q 101 568 86 580 q 72 592 72 613 q 72 633 84 646 q 97 658 117 658 z m 171 419 l 170 310 l 171 207 l 171 130 l 171 71 q 171 36 182 27 q 194 17 217 16 q 244 15 244 5 q 244 -3 233 -3 q 229 -3 225 -2 q 179 3 140 3 q 78 3 54 0 q 49 -1 44 -1 q 32 -1 32 7 q 32 16 60 20 q 87 23 94 31 q 102 40 102 80 l 105 282 q 105 363 93 378 q 81 393 45 394 q 34 394 34 402 q 34 406 38 409 q 42 411 96 415 q 150 419 171 419 z"},"y":{"x_min":0,"x_max":500,"ha":500,"o":"m 292 72 q 345 216 360 268 q 375 320 375 352 q 375 392 324 396 q 310 398 310 406 q 310 414 321 414 q 325 414 348 413 q 356 412 378 412 q 443 412 465 414 q 475 415 479 415 q 491 415 491 407 q 491 399 478 396 q 439 388 416 340 q 394 292 334 116 q 276 -55 240 -131 q 205 -207 167 -236 q 128 -265 91 -265 q 53 -265 31 -243 q 9 -221 9 -198 q 9 -180 24 -166 q 39 -151 54 -151 q 94 -151 98 -191 q 100 -218 122 -218 q 157 -218 200 -145 q 243 -71 243 -29 q 243 3 210 86 q 176 168 135 264 q 94 360 79 377 q 64 394 47 396 q 31 398 31 406 q 31 416 42 416 q 47 416 54 415 q 82 411 119 411 q 197 411 214 415 q 224 417 228 417 q 240 417 240 407 q 240 399 219 394 q 180 384 180 357 q 180 334 292 72 z"},"@":{"x_min":0,"x_max":917,"ha":917,"o":"m 688 468 l 630 273 q 585 118 585 88 q 585 74 595 62 q 604 50 622 50 q 662 50 712 90 q 762 129 795 207 q 829 285 829 369 q 829 499 740 584 q 652 669 512 669 q 397 669 302 609 q 207 548 150 438 q 93 327 93 202 q 93 31 201 -77 q 309 -186 473 -186 q 571 -186 653 -148 q 735 -110 786 -49 q 838 13 868 84 l 896 84 q 855 -49 737 -133 q 619 -216 475 -216 q 289 -216 168 -92 q 47 31 47 215 q 47 417 181 555 q 314 694 515 694 q 670 694 764 600 q 858 505 858 359 q 858 223 781 119 q 703 15 589 15 q 552 15 533 32 q 514 49 514 83 q 514 109 522 154 q 410 15 330 15 q 291 15 266 49 q 242 83 242 129 q 242 196 283 279 q 325 362 392 416 q 459 471 512 471 q 545 471 566 454 q 587 437 595 403 l 611 457 z m 516 448 q 452 448 385 332 q 319 217 319 145 q 319 117 334 95 q 350 74 375 74 q 422 74 477 133 q 532 192 554 264 q 577 336 577 376 q 577 406 561 427 q 545 448 516 448 z"},".":{"x_min":0,"x_max":219,"ha":219,"o":"m 109 90 q 129 90 143 76 q 158 62 158 42 q 158 22 144 8 q 129 -6 109 -6 q 90 -6 76 8 q 62 22 62 42 q 62 62 76 76 q 90 90 109 90 z"},"p":{"x_min":0,"x_max":500,"ha":500,"o":"m 157 417 q 160 396 160 379 q 160 365 157 337 q 206 383 231 396 q 257 410 289 410 q 364 410 417 348 q 470 286 470 203 q 470 112 409 55 q 349 -2 268 -2 q 212 -2 157 30 q 149 -30 149 -102 q 149 -145 152 -168 l 154 -187 q 163 -218 203 -226 q 217 -229 218 -237 l 216 -242 l 213 -244 q 153 -240 119 -240 q 32 -240 15 -242 q 3 -242 3 -233 q 3 -226 13 -225 q 59 -220 70 -204 q 82 -188 85 -66 q 88 57 88 88 l 86 221 l 87 300 q 87 361 79 378 q 70 396 36 398 q 25 399 25 406 q 25 411 29 413 q 33 416 73 416 z m 153 200 q 153 111 158 86 q 162 61 189 40 q 216 18 260 18 q 320 18 356 69 q 392 120 392 194 q 392 278 355 328 q 318 379 265 379 q 213 379 183 336 q 153 293 153 200 z"},"X":{"x_min":0,"x_max":740,"ha":740,"o":"m 385 376 q 409 405 450 464 q 491 522 499 539 q 507 555 507 568 q 507 590 488 601 q 469 613 447 614 q 426 616 426 625 q 426 633 457 633 l 661 633 q 682 633 686 632 q 691 630 691 625 q 691 616 672 615 q 627 613 589 585 q 551 557 482 464 q 413 371 405 355 q 547 143 606 80 q 665 17 714 15 q 731 14 731 4 q 731 -4 713 -4 q 705 -4 673 -2 q 627 0 587 0 q 519 0 457 -2 q 449 -3 441 -3 q 417 -3 417 5 q 417 15 430 15 q 492 15 492 54 q 492 94 349 281 q 333 267 270 176 q 208 84 208 61 q 208 44 231 32 q 255 19 292 16 q 310 15 310 6 q 310 -3 292 -3 l 274 -2 l 175 0 q 87 0 54 -3 q 34 -3 34 6 q 34 16 49 16 q 82 16 110 28 q 137 40 156 61 q 175 83 239 174 q 304 265 329 304 q 161 549 122 581 q 83 612 34 615 q 21 616 21 625 q 21 633 45 633 l 302 633 q 320 633 324 632 q 328 630 328 624 q 328 619 323 617 q 319 615 291 613 q 274 612 263 603 q 251 594 251 582 q 251 568 298 496 q 345 424 385 376 z"},"*":{"x_min":0,"x_max":500,"ha":500,"o":"m 244 669 q 273 669 273 627 q 273 610 269 571 l 259 492 l 259 488 q 259 481 263 481 q 266 481 269 487 q 349 611 384 611 q 393 611 400 605 q 407 599 407 589 q 407 579 403 573 q 398 566 350 531 q 302 496 282 482 q 276 478 276 474 q 276 469 283 469 q 286 469 289 470 q 306 474 355 481 q 404 489 415 489 q 458 489 458 460 q 458 436 430 436 q 418 436 375 442 l 292 455 l 282 457 q 276 457 276 453 q 276 451 282 447 q 324 420 367 385 q 410 350 410 332 q 410 322 402 315 q 394 309 384 309 q 367 309 343 335 q 319 362 274 430 q 269 438 267 438 q 263 438 263 432 q 263 429 264 423 q 276 338 276 284 q 276 251 252 251 q 224 251 224 287 q 224 309 232 358 q 241 407 247 429 l 248 432 q 248 437 243 437 l 239 434 q 211 391 175 346 q 138 302 123 302 q 113 302 106 310 q 100 317 100 326 q 100 336 104 343 q 109 350 145 380 q 180 411 210 431 q 228 442 228 445 q 228 448 224 448 l 219 447 q 210 445 152 436 q 95 426 79 426 q 41 426 41 454 q 41 481 77 481 q 97 481 137 475 l 213 462 l 224 460 q 229 460 229 464 q 229 467 218 474 q 209 479 190 494 q 147 526 117 547 q 86 568 86 587 q 86 597 94 604 q 102 611 111 611 q 124 611 143 593 q 162 574 208 516 q 239 480 241 480 q 245 480 245 485 l 244 492 q 219 580 219 629 q 219 669 244 669 z"},"Y":{"x_min":0,"x_max":708,"ha":708,"o":"m 378 334 q 406 364 462 443 q 518 522 528 542 q 538 561 538 572 q 538 592 517 604 q 497 616 476 616 q 459 616 459 625 q 459 634 487 634 l 671 634 q 697 634 697 624 q 697 616 686 616 q 657 616 630 603 q 604 589 565 543 l 480 429 q 414 339 408 323 q 400 300 400 202 q 400 71 411 46 q 422 22 482 17 q 498 15 498 7 q 498 -3 481 -3 l 350 0 q 302 0 272 -2 q 248 -4 241 -4 q 222 -4 222 6 q 222 14 236 14 q 283 16 298 49 q 314 83 314 147 q 314 219 305 263 q 303 274 263 343 q 223 411 165 494 q 107 578 83 596 q 58 614 34 616 q 17 617 17 625 q 17 631 21 633 q 26 634 49 634 l 262 634 q 284 634 289 633 q 293 631 293 625 q 293 617 281 616 q 219 611 219 579 q 219 562 242 527 q 264 491 378 334 z"},"c":{"x_min":0,"x_max":417,"ha":417,"o":"m 32 197 q 32 286 90 353 q 147 420 229 420 q 283 420 332 394 q 380 368 380 329 q 380 313 371 302 q 362 291 350 291 q 322 291 308 334 q 285 402 229 402 q 173 402 144 354 q 115 306 115 228 q 115 136 156 78 q 196 20 253 20 q 291 20 326 49 q 361 78 367 119 q 369 133 377 133 q 386 133 386 125 q 386 77 342 35 q 298 -7 224 -7 q 143 -7 87 54 q 32 116 32 197 z"},"!":{"x_min":0,"x_max":219,"ha":219,"o":"m 107 648 q 156 648 156 578 q 156 556 145 465 q 135 391 127 294 q 118 196 118 184 q 118 160 117 157 q 117 154 108 154 q 95 154 95 162 l 96 181 q 96 208 87 323 q 78 437 64 545 q 62 571 62 587 q 62 614 75 631 q 88 648 107 648 z m 109 86 q 129 86 144 72 q 158 58 158 38 q 158 18 144 4 q 129 -10 109 -10 q 90 -10 76 4 q 62 18 62 38 q 62 59 76 72 q 90 86 109 86 z"},"/":{"x_min":0,"x_max":500,"ha":500,"o":"m 400 696 l 443 696 l 99 -18 l 57 -18 z"},"[":{"x_min":0,"x_max":510,"ha":510,"o":"m 140 -199 q 283 -145 362 -145 q 426 -145 458 -168 q 491 -192 491 -224 q 491 -241 485 -254 q 479 -266 471 -266 q 462 -266 462 -259 q 462 -256 465 -250 q 467 -244 467 -241 q 467 -225 454 -219 q 441 -212 398 -212 q 313 -212 217 -226 q 157 -233 137 -233 q 115 -233 115 -225 l 111 202 q 111 321 113 407 l 117 552 q 119 612 122 616 q 125 619 132 619 q 136 619 144 618 q 240 609 345 609 q 417 609 442 615 q 467 621 467 640 q 467 644 466 647 l 462 657 q 462 665 472 665 q 479 665 485 655 q 491 644 491 630 q 491 598 458 569 q 424 541 372 541 q 296 541 140 587 l 141 371 l 137 14 q 137 -109 140 -199 z"},"6":{"x_min":0,"x_max":500,"ha":500,"o":"m 133 282 q 167 308 202 321 q 238 333 277 333 q 351 333 401 287 q 451 241 451 174 q 451 105 396 48 q 340 -9 249 -9 q 164 -9 109 53 q 54 115 54 230 q 54 330 94 397 q 134 464 190 500 q 246 535 328 535 q 386 535 423 509 q 460 483 460 448 q 460 426 447 413 q 434 399 417 399 q 380 399 380 439 q 380 478 378 486 q 376 495 359 505 q 341 516 313 516 q 245 516 197 454 q 149 393 133 282 z m 126 168 q 126 94 162 52 q 198 9 252 9 q 310 9 341 55 q 372 102 372 165 q 372 227 341 269 q 310 311 256 311 q 203 311 165 274 q 126 238 126 168 z"},"r":{"x_min":0,"x_max":396,"ha":396,"o":"m 171 309 q 202 363 237 391 q 271 418 310 418 q 337 418 356 399 q 376 379 376 355 q 376 309 336 309 q 318 309 305 334 q 290 367 264 367 q 239 367 213 340 q 188 312 179 280 q 170 248 170 144 q 170 49 178 35 q 186 21 218 18 q 227 17 227 11 q 227 0 204 0 l 48 0 q 31 0 31 9 q 31 17 53 18 q 84 20 91 37 q 99 54 99 163 q 99 322 92 354 q 85 387 43 389 q 25 390 25 398 q 25 402 29 405 q 33 407 74 409 l 164 414 q 167 388 171 309 z"},"2":{"x_min":0,"x_max":500,"ha":500,"o":"m 391 1 q 365 -1 343 -1 l 129 1 q 79 1 62 0 q 47 0 47 9 q 47 14 55 20 q 230 148 292 237 q 354 326 354 400 q 354 443 333 474 q 312 505 269 505 q 198 505 152 443 q 105 381 105 315 q 105 285 117 270 q 129 255 152 255 q 170 255 194 270 q 218 285 235 331 q 239 343 246 343 q 255 343 255 333 q 255 325 241 297 q 228 270 198 249 q 168 228 140 228 q 105 228 79 255 q 53 282 53 318 q 53 386 131 458 q 209 530 294 530 q 351 530 392 497 q 434 463 434 400 q 434 339 394 284 q 354 230 231 136 q 167 86 144 66 l 292 66 q 356 66 376 74 q 396 82 420 115 q 433 133 438 133 q 446 133 446 125 z"},"{":{"x_min":0,"x_max":479,"ha":479,"o":"m 411 -243 l 411 -260 q 333 -251 280 -196 q 227 -141 227 -70 q 227 -38 237 5 q 250 57 250 80 q 250 118 219 148 q 189 178 138 185 l 138 205 q 189 211 219 242 q 250 272 250 310 q 250 333 237 384 q 227 427 227 460 q 227 530 280 585 q 333 641 411 650 l 411 633 q 300 605 300 517 q 300 492 312 440 q 322 396 322 364 q 322 310 284 265 q 245 220 178 196 q 245 172 284 125 q 322 78 322 26 q 322 -6 312 -50 q 300 -102 300 -127 q 300 -216 411 -243 z"},"9":{"x_min":0,"x_max":500,"ha":500,"o":"m 375 243 q 337 217 301 203 q 265 190 230 190 q 161 190 108 235 q 56 280 56 353 q 56 432 119 483 q 181 535 252 535 q 335 535 394 472 q 453 410 453 298 q 453 162 376 69 q 298 -23 179 -23 q 116 -23 80 2 q 43 28 43 67 q 43 89 57 103 q 70 116 88 116 q 125 116 125 80 q 125 73 124 62 q 123 50 123 44 q 123 -2 194 -2 q 265 -2 310 59 q 355 121 375 243 z m 133 366 q 133 297 166 255 q 199 213 249 213 q 301 213 340 250 q 379 286 379 358 q 379 430 344 473 q 309 516 252 516 q 200 516 167 471 q 133 426 133 366 z"}," ":{"x_min":0,"x_max":250,"ha":250,"o":""},"I":{"x_min":0,"x_max":375,"ha":375,"o":"m 68 644 l 157 642 l 293 644 q 317 644 317 634 q 317 627 304 625 q 250 618 237 586 q 223 554 223 348 q 223 272 227 177 q 231 83 236 64 q 241 45 254 34 q 268 22 305 17 q 317 16 317 8 q 317 -1 306 -1 l 185 0 l 82 -1 q 65 -1 65 8 q 65 19 79 19 q 124 20 132 49 q 140 78 140 236 q 140 388 137 482 q 134 577 121 598 q 108 619 71 624 q 58 626 58 635 q 58 644 68 644 z"},"H":{"x_min":0,"x_max":760,"ha":760,"o":"m 539 335 l 543 471 q 543 560 525 588 q 507 616 465 616 q 441 616 441 626 q 441 636 456 636 l 598 631 l 718 633 q 732 633 732 625 q 732 617 723 617 q 686 617 666 606 q 645 595 638 569 q 632 543 628 422 q 624 300 624 245 l 622 125 q 622 68 633 52 q 644 35 665 25 q 686 16 708 13 q 724 11 724 4 q 724 -4 711 -4 l 561 0 l 462 -3 q 445 -3 445 5 q 445 13 458 13 q 497 16 509 23 q 521 31 528 53 q 535 75 536 127 l 539 305 q 497 308 453 308 q 264 308 213 301 q 209 207 209 146 q 209 79 212 63 q 215 47 231 34 q 246 21 273 15 q 290 12 290 4 q 290 -4 279 -4 q 275 -4 269 -3 q 243 0 160 0 q 69 0 49 -4 q 44 -5 40 -5 q 29 -5 29 2 q 29 11 44 13 q 82 17 98 34 q 114 50 120 158 q 126 266 126 420 q 126 546 114 579 q 103 611 57 615 q 47 616 47 623 q 47 632 68 632 l 265 635 q 286 635 290 634 q 294 633 294 626 q 294 618 281 617 q 233 612 222 599 q 212 586 212 441 q 212 426 213 335 q 263 331 331 331 q 417 331 539 335 z"},"4":{"x_min":0,"x_max":500,"ha":500,"o":"m 267 201 q 155 201 26 197 q 26 203 26 206 q 26 209 26 215 q 161 382 309 532 q 321 534 324 534 q 332 534 334 528 q 336 489 336 462 l 333 284 q 333 262 334 222 q 406 222 428 242 q 450 262 451 309 q 452 320 460 320 q 470 320 470 308 q 470 303 469 297 q 467 273 467 231 l 469 125 q 469 115 459 115 q 452 115 450 124 q 440 170 425 186 q 411 202 370 202 q 362 202 334 201 q 334 70 336 55 q 338 40 351 29 q 364 19 398 19 q 414 19 414 10 q 414 0 387 0 l 202 0 q 175 0 175 10 q 175 19 198 19 q 241 20 252 41 q 263 62 267 201 z m 267 222 q 272 307 271 461 q 202 384 159 339 q 116 294 60 220 q 138 223 229 223 q 236 223 267 222 z"},"~":{"x_min":0,"x_max":667,"ha":667,"o":"m 572 328 l 593 328 q 592 267 558 231 q 524 194 475 194 q 450 194 422 203 q 394 212 293 253 q 217 285 185 285 q 112 285 94 195 l 73 195 q 75 262 110 295 q 145 329 187 329 q 231 329 372 269 q 447 236 481 236 q 523 236 545 262 q 568 289 572 328 z"},"D":{"x_min":0,"x_max":760,"ha":760,"o":"m 230 639 l 331 641 q 522 641 620 548 q 717 455 717 314 q 717 214 670 140 q 624 66 553 28 q 483 -9 366 -9 q 339 -9 299 -6 q 227 0 218 0 q 58 0 29 -4 q 13 -4 13 4 q 13 10 19 12 q 25 14 55 18 q 94 23 110 49 q 126 75 130 210 l 138 469 q 138 514 132 555 q 125 597 113 609 q 100 621 71 625 q 51 628 51 637 q 51 647 61 647 q 71 647 121 643 q 171 639 230 639 z m 213 167 q 213 103 222 75 q 230 47 259 30 q 287 12 349 12 q 438 12 493 54 q 548 96 579 166 q 610 235 610 314 q 610 430 539 524 q 468 619 319 619 q 252 619 241 614 q 230 610 230 588 q 230 569 227 521 q 222 449 221 409 l 216 275 q 213 181 213 167 z"},"^":{"x_min":0,"x_max":469,"ha":469,"o":"m 243 676 l 451 326 l 406 326 l 235 612 l 64 326 l 18 326 l 229 676 z"},"0":{"x_min":0,"x_max":500,"ha":500,"o":"m 253 531 q 342 531 407 450 q 472 370 472 264 q 472 157 406 74 q 341 -9 246 -9 q 154 -9 91 70 q 28 149 28 258 q 28 332 59 394 q 91 456 140 493 q 190 531 253 531 z m 252 512 q 188 512 148 444 q 109 375 109 258 q 109 144 150 77 q 191 11 249 11 q 310 11 349 66 q 389 122 389 271 q 389 393 351 453 q 314 512 252 512 z"},"F":{"x_min":0,"x_max":625,"ha":625,"o":"m 221 325 l 220 205 q 220 78 224 63 q 228 48 240 32 q 253 17 294 14 q 316 13 316 3 q 316 -7 301 -7 q 295 -7 270 -5 q 219 0 180 0 q 147 0 88 -4 l 61 -5 q 45 -5 45 4 q 45 14 68 14 q 99 14 113 32 q 126 49 131 121 q 135 193 135 312 q 135 423 131 487 q 127 551 120 571 q 113 591 99 600 q 84 608 45 611 q 29 612 29 621 q 29 628 43 629 q 165 639 504 639 q 562 639 568 637 q 573 636 575 631 q 577 626 588 563 q 599 500 599 498 q 599 487 590 487 q 584 487 578 497 q 509 617 354 617 q 301 617 268 612 q 235 607 230 601 q 225 594 223 540 q 221 485 221 349 q 260 347 274 347 q 345 347 372 377 q 400 407 401 439 q 402 460 413 460 q 423 460 423 446 q 423 441 422 434 q 419 405 419 289 l 419 232 q 419 211 407 211 q 396 211 396 227 q 395 271 368 299 q 342 327 264 327 q 251 327 221 325 z"},"`":{"x_min":0,"x_max":333,"ha":333,"o":"m 213 461 l 97 549 q 49 585 49 610 q 49 641 81 641 q 98 641 111 629 q 125 618 146 587 l 222 482 q 236 463 236 458 q 236 452 229 452 q 224 452 213 461 z"},"k":{"x_min":0,"x_max":500,"ha":500,"o":"m 163 665 q 165 646 165 639 l 163 586 l 166 399 l 166 205 q 248 262 288 305 q 328 349 328 368 q 328 387 292 390 q 273 392 273 400 q 273 406 278 407 q 283 409 321 409 l 396 408 q 419 408 438 409 q 458 409 458 400 q 458 394 447 392 q 413 386 388 372 q 364 358 328 320 q 294 284 285 275 q 355 241 391 87 q 400 49 417 35 q 433 20 478 19 q 493 18 493 9 q 493 0 468 0 l 350 0 q 332 16 326 32 q 321 48 316 82 q 299 199 222 223 q 220 221 166 182 q 166 167 166 155 q 166 62 177 40 q 188 19 217 17 q 232 17 232 8 q 232 0 201 0 l 59 0 q 33 0 33 8 q 33 16 45 18 q 70 22 76 27 q 83 32 91 47 q 98 62 98 104 l 98 180 l 92 524 q 92 582 81 605 q 69 628 35 634 q 23 636 23 643 q 23 651 63 653 q 82 655 103 658 q 144 664 163 665 z"},"u":{"x_min":0,"x_max":510,"ha":510,"o":"m 151 410 q 154 378 156 227 q 157 132 161 100 q 165 69 185 48 q 206 28 233 28 q 268 28 303 61 q 339 93 347 131 q 355 168 355 302 q 355 365 348 378 q 340 391 310 393 q 298 394 298 401 q 298 407 302 408 q 305 410 324 410 l 421 410 q 426 357 426 291 l 422 107 q 422 51 431 36 q 441 21 461 20 q 474 18 474 10 q 474 1 449 1 l 372 1 q 352 1 352 14 q 352 18 353 23 q 354 38 354 53 q 354 65 353 90 q 315 42 275 18 q 235 -6 192 -6 q 155 -6 130 12 q 104 30 96 56 q 88 82 85 184 q 83 286 83 344 q 83 375 79 383 q 76 391 58 392 q 38 394 38 402 q 38 410 62 410 z"},"]":{"x_min":0,"x_max":510,"ha":510,"o":"m 371 598 q 228 543 148 543 q 89 543 54 566 q 20 588 20 623 q 20 640 25 652 q 31 665 39 665 q 48 665 48 658 q 48 655 45 648 q 43 643 43 640 q 43 627 53 620 q 63 611 112 611 q 197 611 293 624 q 354 632 374 632 q 396 632 396 623 l 399 197 q 399 78 397 -8 l 393 -154 q 391 -214 388 -217 q 385 -221 378 -221 q 375 -221 367 -220 q 271 -210 166 -210 q 93 -210 68 -217 q 43 -223 43 -241 q 43 -246 44 -249 l 48 -258 q 48 -266 39 -266 q 31 -266 25 -256 q 19 -246 19 -231 q 19 -199 53 -171 q 86 -143 139 -143 q 214 -143 371 -189 l 370 28 l 374 385 q 374 520 371 598 z"},"U":{"x_min":0,"x_max":760,"ha":760,"o":"m 52 639 l 296 639 q 317 639 317 630 q 317 622 302 620 q 267 617 250 601 q 234 585 225 546 q 217 506 217 376 q 217 221 226 161 q 235 101 282 65 q 330 30 412 30 q 498 30 543 62 q 588 95 601 160 q 615 224 615 439 q 615 550 592 585 q 569 619 524 619 q 506 619 506 629 q 506 639 530 639 l 725 639 q 738 639 738 629 q 738 623 728 621 q 690 616 673 598 q 656 580 650 532 q 645 485 645 393 q 645 278 636 198 q 628 118 600 79 q 571 40 514 15 q 458 -9 375 -9 q 290 -9 230 18 q 170 45 149 90 q 127 135 127 224 l 129 359 q 129 539 114 579 q 99 620 48 621 q 31 621 31 629 q 31 639 52 639 z"},"o":{"x_min":0,"x_max":490,"ha":490,"o":"m 34 204 q 34 290 96 355 q 158 421 248 421 q 333 421 394 362 q 456 304 456 216 q 456 127 391 60 q 327 -7 241 -7 q 156 -7 95 54 q 34 116 34 204 z m 113 207 q 113 123 152 67 q 190 12 248 12 q 300 12 340 64 q 379 116 379 203 q 379 280 341 340 q 303 400 242 400 q 185 400 149 345 q 113 291 113 207 z"},"N":{"x_min":0,"x_max":750,"ha":750,"o":"m 179 636 q 208 596 281 513 l 437 332 l 587 158 q 592 247 592 388 q 592 494 588 530 q 583 565 555 590 q 527 614 485 614 q 466 614 466 623 q 466 627 470 630 q 474 632 536 634 q 597 636 639 636 l 705 636 l 716 636 q 731 636 731 627 q 731 619 718 618 q 668 612 647 592 q 625 572 621 534 q 617 496 617 277 l 612 20 q 612 0 602 0 q 600 0 595 2 q 591 4 552 52 q 512 99 454 165 q 396 230 363 271 q 291 360 271 380 q 201 456 188 477 q 180 492 173 492 q 167 492 167 473 l 168 397 q 168 253 176 167 q 184 81 193 66 q 201 51 222 36 q 244 21 268 21 q 300 21 300 9 q 300 0 282 0 l 47 1 q 30 1 30 9 q 30 19 46 19 q 106 19 126 46 q 146 72 146 159 l 143 330 q 143 482 134 509 q 126 536 97 575 q 68 614 31 619 q 14 621 14 627 q 14 637 36 637 z"},"+":{"x_min":0,"x_max":667,"ha":667,"o":"m 71 281 l 311 281 l 311 523 l 354 523 l 354 281 l 596 281 l 596 238 l 354 238 l 354 0 l 311 0 l 311 238 l 71 238 z"},"G":{"x_min":0,"x_max":771,"ha":771,"o":"m 661 434 q 654 434 647 450 q 607 538 542 585 q 476 633 402 633 q 341 633 284 596 q 227 560 190 483 q 154 406 154 319 q 154 195 229 104 q 303 14 414 14 q 454 14 481 26 q 509 39 534 62 q 559 84 564 96 q 569 107 569 155 q 569 235 548 260 q 526 286 479 286 l 464 285 q 450 285 450 294 q 450 306 466 306 l 492 305 l 602 306 l 737 309 q 749 309 749 299 q 749 289 736 288 q 706 285 687 274 q 667 264 663 251 q 659 238 659 207 q 659 92 653 81 q 648 70 562 30 q 477 -10 391 -10 q 248 -10 146 82 q 44 173 44 314 q 44 411 93 489 q 141 567 224 611 q 308 654 394 654 q 475 654 569 607 q 595 594 606 594 q 621 594 629 607 q 637 619 643 619 q 654 619 656 590 q 659 546 670 455 q 671 450 671 446 q 671 434 661 434 z"},"q":{"x_min":0,"x_max":510,"ha":510,"o":"m 381 370 l 391 384 q 397 393 399 397 q 404 411 410 411 q 419 411 419 398 l 418 381 l 417 214 q 417 -121 424 -163 q 431 -204 476 -204 q 497 -204 497 -212 q 497 -222 468 -222 l 301 -222 q 281 -222 281 -213 q 281 -205 295 -205 q 329 -205 340 -188 q 351 -172 351 -127 q 351 -8 349 34 q 322 18 291 10 q 260 2 225 2 q 140 2 85 66 q 31 130 31 207 q 31 256 58 306 q 84 356 129 388 q 174 419 229 419 q 309 419 381 370 z m 247 20 q 282 20 309 41 q 337 62 344 86 q 351 111 351 168 q 351 256 345 303 q 338 350 311 376 q 284 402 245 402 q 183 402 149 342 q 115 281 115 209 q 115 124 151 72 q 188 20 247 20 z"},"d":{"x_min":0,"x_max":510,"ha":510,"o":"m 419 668 q 420 564 420 386 l 416 76 q 416 25 463 17 q 479 14 479 6 q 479 0 473 -1 q 468 -2 409 -2 q 378 -2 349 -1 q 347 28 347 42 q 347 58 349 89 q 322 40 289 16 q 255 -9 214 -9 q 156 -9 96 46 q 36 101 36 193 q 36 284 92 350 q 148 417 229 417 q 271 417 300 399 q 330 382 349 347 q 352 404 352 455 q 352 611 344 628 q 336 645 307 648 q 289 651 289 658 q 289 666 312 666 z m 351 231 q 351 314 323 355 q 294 396 238 396 q 179 396 149 348 q 119 300 119 204 q 119 107 155 65 q 190 23 231 23 q 273 23 312 67 q 351 111 351 231 z"},"1":{"x_min":0,"x_max":500,"ha":500,"o":"m 308 455 q 305 280 305 232 q 305 70 312 47 q 319 23 362 19 q 382 17 382 11 q 382 -1 367 -1 q 363 -1 358 0 q 341 1 303 1 q 224 1 181 -1 q 171 -1 166 -1 q 150 -1 150 7 q 150 17 167 18 q 218 21 229 41 q 240 62 240 132 q 240 327 238 381 q 236 436 221 454 q 206 472 173 472 q 152 472 147 475 q 142 478 142 484 q 142 491 159 492 q 193 492 231 502 q 270 513 292 528 q 297 532 300 532 q 308 532 308 518 z"},"5":{"x_min":0,"x_max":500,"ha":500,"o":"m 195 454 q 173 341 168 299 q 196 321 224 333 q 252 344 282 344 q 341 344 388 305 q 434 266 434 200 q 434 118 362 54 q 290 -9 204 -9 q 142 -9 99 21 q 56 51 56 97 q 56 120 70 131 q 83 142 100 142 q 114 142 125 133 q 137 123 137 109 q 137 102 133 87 q 129 72 129 64 q 129 45 146 27 q 164 9 203 9 q 274 9 315 69 q 356 128 356 217 q 356 271 336 298 q 316 325 275 325 q 228 325 192 291 q 157 256 153 223 q 150 202 142 202 q 133 202 133 212 q 133 215 156 356 l 172 464 q 179 508 184 522 q 271 508 289 508 q 355 508 399 566 q 408 577 414 577 q 421 577 421 571 q 421 536 373 493 q 324 451 246 451 q 228 451 195 454 z"}}}
